<svg width="24" height="22" viewBox="0 0 24 22" fill="none" xmlns="http://www.w3.org/2000/svg">
<path d="M22.8155 14.5454C22.5338 14.5454 22.2636 14.6476 22.0644 14.8295C21.8652 15.0113 21.7533 15.258 21.7533 15.5151V19.3939H2.63236V15.5151C2.63236 15.258 2.52044 15.0113 2.32122 14.8295C2.12201 14.6476 1.85182 14.5454 1.57008 14.5454C1.28835 14.5454 1.01816 14.6476 0.818945 14.8295C0.61973 15.0113 0.507813 15.258 0.507812 15.5151V20.3636C0.507813 20.6208 0.61973 20.8674 0.818945 21.0493C1.01816 21.2312 1.28835 21.3333 1.57008 21.3333H22.8155C23.0973 21.3333 23.3675 21.2312 23.5667 21.0493C23.7659 20.8674 23.8778 20.6208 23.8778 20.3636V15.5151C23.8778 15.258 23.7659 15.0113 23.5667 14.8295C23.3675 14.6476 23.0973 14.5454 22.8155 14.5454Z" fill="#163331"/>
<path d="M11.4375 16.2007C11.6367 16.3825 11.9068 16.4846 12.1885 16.4846C12.4702 16.4846 12.7403 16.3825 12.9395 16.2007L19.3131 10.3825C19.5066 10.1997 19.6137 9.95471 19.6113 9.70046C19.6089 9.44621 19.4972 9.203 19.3002 9.02321C19.1032 8.84342 18.8368 8.74144 18.5583 8.73923C18.2798 8.73702 18.0114 8.83476 17.8111 9.01139L13.2508 13.1743V0.969697C13.2508 0.712517 13.1388 0.465871 12.9396 0.284018C12.7404 0.102164 12.4702 0 12.1885 0C11.9067 0 11.6366 0.102164 11.4373 0.284018C11.2381 0.465871 11.1262 0.712517 11.1262 0.969697V13.1743L6.56587 9.01139C6.36552 8.83476 6.09719 8.73702 5.81867 8.73923C5.54014 8.74144 5.27371 8.84342 5.07676 9.02321C4.8798 9.203 4.76809 9.44621 4.76567 9.70046C4.76324 9.95471 4.87032 10.1997 5.06382 10.3825L11.4375 16.2007Z" fill="#163331"/>
</svg>
